<?xml version="1.0" ?><svg xmlns="http://www.w3.org/2000/svg" width="24" height="24" viewBox="0 0 24 24" fill="none"><g id="letter-r"><g id="outline" filter="url(#filter0_d_1701_1355)"><path fill-rule="evenodd" clip-rule="evenodd" d="M12.75 3H5C4.44772 3 4 3.44772 4 4V20C4 20.5523 4.44772 21 5 21H10C10.5523 21 11 20.5523 11 20V18.4146C11 18.1856 11.1856 18 11.4146 18C11.5627 18 11.6996 18.079 11.7736 18.2073L13.0973 20.5C13.2759 20.8094 13.6061 21 13.9633 21H19.7368C20.5066 21 20.9878 20.1667 20.6029 19.5L18.62 16.0655C18.4083 15.6988 18.4562 15.2423 18.6985 14.8951C19.5179 13.7211 20 12.2919 20 10.75V10.25C20 6.24594 16.7541 3 12.75 3Z" fill="white"/></g><path id="icon" fill-rule="evenodd" clip-rule="evenodd" d="M6 19V5H12.75C15.6495 5 18 7.35051 18 10.25V10.75C18 12.5405 17.1037 14.1216 15.7353 15.0692L18.0048 19H14.5407L12.8084 15.9997C12.789 15.9999 12.7695 16 12.75 16H9V19H6ZM12.75 8C13.9926 8 15 9.00736 15 10.25L15 10.75C15 11.9926 13.9926 13 12.75 13H9V8H12.75Z" fill="#1452CC"/></g><defs><filter id="filter0_d_1701_1355" x="2" y="1.5" width="20.7383" height="22" filterUnits="userSpaceOnUse" color-interpolation-filters="sRGB"><feFlood flood-opacity="0" result="BackgroundImageFix"/><feColorMatrix in="SourceAlpha" type="matrix" values="0 0 0 0 0 0 0 0 0 0 0 0 0 0 0 0 0 0 127 0" result="hardAlpha"/><feOffset dy="0.5"/><feGaussianBlur stdDeviation="1"/><feComposite in2="hardAlpha" operator="out"/><feColorMatrix type="matrix" values="0 0 0 0 0 0 0 0 0 0 0 0 0 0 0 0 0 0 0.25 0"/><feBlend mode="normal" in2="BackgroundImageFix" result="effect1_dropShadow_1701_1355"/><feBlend mode="normal" in="SourceGraphic" in2="effect1_dropShadow_1701_1355" result="shape"/></filter></defs></svg>